<svg xmlns="http://www.w3.org/2000/svg" aria-hidden="true" style="display:none">
  <!--
    Workout icon sprite. All symbols: 24x24, stroke=currentColor, stroke-width=2.
    Usage: <svg class="size-5" aria-hidden="true"><use href="/illustrations/icons-workout.svg#wi-barbell"/></svg>
    Color via CSS `color:` on the consuming element.
  -->
  <defs>
    <symbol id="wi-barbell" viewBox="0 0 24 24" fill="none" stroke="currentColor" stroke-width="2" stroke-linecap="round" stroke-linejoin="round">
      <path d="M2 12h1.5M20.5 12H22M8 12h8"/>
      <rect x="4.5" y="6.5" width="3.5" height="11" rx="1.2"/>
      <rect x="16" y="6.5" width="3.5" height="11" rx="1.2"/>
    </symbol>
    <symbol id="wi-dumbbell" viewBox="0 0 24 24" fill="none" stroke="currentColor" stroke-width="2" stroke-linecap="round" stroke-linejoin="round">
      <rect x="3" y="8" width="4" height="8" rx="1.2"/>
      <rect x="17" y="8" width="4" height="8" rx="1.2"/>
      <path d="M7 12h10"/>
    </symbol>
    <symbol id="wi-kettlebell" viewBox="0 0 24 24" fill="none" stroke="currentColor" stroke-width="2" stroke-linecap="round" stroke-linejoin="round">
      <path d="M9 9.5V7a3 3 0 0 1 6 0v2.5"/>
      <circle cx="12" cy="14.5" r="5.5"/>
    </symbol>
    <symbol id="wi-plate" viewBox="0 0 24 24" fill="none" stroke="currentColor" stroke-width="2" stroke-linecap="round" stroke-linejoin="round">
      <circle cx="12" cy="12" r="8.5"/>
      <circle cx="12" cy="12" r="2.5"/>
      <path d="M12 3.5v3M12 17.5v3M3.5 12h3M17.5 12h3"/>
    </symbol>
    <symbol id="wi-rest-timer" viewBox="0 0 24 24" fill="none" stroke="currentColor" stroke-width="2" stroke-linecap="round" stroke-linejoin="round">
      <circle cx="12" cy="13.5" r="7.5"/>
      <path d="M12 13.5V10M10 2.5h4M12 2.5V6"/>
    </symbol>
    <symbol id="wi-flame" viewBox="0 0 24 24" fill="none" stroke="currentColor" stroke-width="2" stroke-linecap="round" stroke-linejoin="round">
      <path d="M12 2.5c1 3.5 6 5.5 6 11a6 6 0 0 1-12 0c0-2.8 1.6-4.2 2.8-6.4.8 1 1.4 2 1.6 3.4 1.2-2 1.6-5 1.6-8z"/>
      <path d="M12 21.5a3 3 0 0 0 3-3c0-1.8-1.5-2.5-3-4.5-1.5 2-3 2.7-3 4.5a3 3 0 0 0 3 3z"/>
    </symbol>
    <symbol id="wi-trophy" viewBox="0 0 24 24" fill="none" stroke="currentColor" stroke-width="2" stroke-linecap="round" stroke-linejoin="round">
      <path d="M7 3.5h10v5.5a5 5 0 0 1-10 0z"/>
      <path d="M7 5H3.5c0 3.5 1.8 5.4 4.2 5.9M17 5h3.5c0 3.5-1.8 5.4-4.2 5.9"/>
      <path d="M12 14v3.5M8 20.5h8M9.5 20.5V19a1.5 1.5 0 0 1 1.5-1.5h2A1.5 1.5 0 0 1 14.5 19v1.5"/>
    </symbol>
    <symbol id="wi-medal" viewBox="0 0 24 24" fill="none" stroke="currentColor" stroke-width="2" stroke-linecap="round" stroke-linejoin="round">
      <circle cx="12" cy="15" r="5"/>
      <path d="M12 13.2l.9 1.8 2 .3-1.4 1.4.3 2-1.8-1-1.8 1 .3-2-1.4-1.4 2-.3z" stroke-width="1.2"/>
      <path d="M8.7 10.8 5.5 3.5h4L12 8.5l2.5-5h4l-3.2 7.3"/>
    </symbol>
    <symbol id="wi-pr-star" viewBox="0 0 24 24" fill="none" stroke="currentColor" stroke-width="2" stroke-linecap="round" stroke-linejoin="round">
      <path d="M12 3l2.7 5.6 6.1.8-4.5 4.2 1.2 6-5.5-3-5.5 3 1.2-6L3.2 9.4l6.1-.8z"/>
    </symbol>
    <symbol id="wi-superset" viewBox="0 0 24 24" fill="none" stroke="currentColor" stroke-width="2" stroke-linecap="round" stroke-linejoin="round">
      <path d="M9.5 14.5a4 4 0 0 1 0-5.7l3-3a4 4 0 0 1 5.7 5.7l-1.5 1.5"/>
      <path d="M14.5 9.5a4 4 0 0 1 0 5.7l-3 3a4 4 0 0 1-5.7-5.7l1.5-1.5"/>
    </symbol>
    <symbol id="wi-rep-check" viewBox="0 0 24 24" fill="none" stroke="currentColor" stroke-width="2" stroke-linecap="round" stroke-linejoin="round">
      <circle cx="12" cy="12" r="9"/>
      <path d="M8 12.5l2.8 2.8L16.5 9"/>
    </symbol>
    <symbol id="wi-bodyweight" viewBox="0 0 24 24" fill="none" stroke="currentColor" stroke-width="2" stroke-linecap="round" stroke-linejoin="round">
      <rect x="3.5" y="3.5" width="17" height="17" rx="3"/>
      <path d="M8 9.5a4.5 4.5 0 0 1 8 0"/>
      <path d="M12 8.5l1.8-1.8"/>
    </symbol>
    <symbol id="wi-template" viewBox="0 0 24 24" fill="none" stroke="currentColor" stroke-width="2" stroke-linecap="round" stroke-linejoin="round">
      <rect x="5" y="4" width="14" height="17" rx="2"/>
      <path d="M9 4V3h6v1"/>
      <path d="M9 10h6M9 14h6M9 18h3"/>
    </symbol>
    <symbol id="wi-share-link" viewBox="0 0 24 24" fill="none" stroke="currentColor" stroke-width="2" stroke-linecap="round" stroke-linejoin="round">
      <circle cx="6" cy="12" r="2.5"/>
      <circle cx="17.5" cy="5.5" r="2.5"/>
      <circle cx="17.5" cy="18.5" r="2.5"/>
      <path d="M8.2 10.8l7-4M8.2 13.2l7 4"/>
    </symbol>
    <symbol id="wi-follow-add" viewBox="0 0 24 24" fill="none" stroke="currentColor" stroke-width="2" stroke-linecap="round" stroke-linejoin="round">
      <circle cx="10" cy="8" r="3.5"/>
      <path d="M4 20a6 6 0 0 1 12 0"/>
      <path d="M18.5 8v5M16 10.5h5"/>
    </symbol>
    <symbol id="wi-comment" viewBox="0 0 24 24" fill="none" stroke="currentColor" stroke-width="2" stroke-linecap="round" stroke-linejoin="round">
      <path d="M20 14a2 2 0 0 1-2 2H8l-4.5 4V6a2 2 0 0 1 2-2H18a2 2 0 0 1 2 2z"/>
      <path d="M8.5 9h7M8.5 12.5h4"/>
    </symbol>
    <symbol id="wi-heart" viewBox="0 0 24 24" fill="none" stroke="currentColor" stroke-width="2" stroke-linecap="round" stroke-linejoin="round">
      <path d="M12 20.5c-6.5-4.5-9-7.5-9-11a5 5 0 0 1 9-3 5 5 0 0 1 9 3c0 3.5-2.5 6.5-9 11z"/>
    </symbol>
    <symbol id="wi-cat-strength" viewBox="0 0 24 24" fill="none" stroke="currentColor" stroke-width="2" stroke-linecap="round" stroke-linejoin="round">
      <rect x="5" y="12" width="14" height="4" rx="1.5"/>
      <rect x="7" y="7" width="10" height="4" rx="1.5"/>
      <path d="M5 20h14"/>
    </symbol>
    <symbol id="wi-cat-cardio" viewBox="0 0 24 24" fill="none" stroke="currentColor" stroke-width="2" stroke-linecap="round" stroke-linejoin="round">
      <path d="M12 20c-5.5-4-8-6.6-8-9.8A4.2 4.2 0 0 1 12 7.4a4.2 4.2 0 0 1 8 2.8c0 3.2-2.5 5.8-8 9.8z"/>
      <path d="M6 12h3.5l1.5-2.5 2 4 1.5-2.5H18"/>
    </symbol>
    <symbol id="wi-cat-flexibility" viewBox="0 0 24 24" fill="none" stroke="currentColor" stroke-width="2" stroke-linecap="round" stroke-linejoin="round">
      <path d="M4 18c5 1 6-4 8-8s5-5 8-3"/>
      <path d="M17.5 4.5L20 7l-3.2 1"/>
      <circle cx="5.5" cy="8" r="2"/>
    </symbol>
    <symbol id="wi-cat-balance" viewBox="0 0 24 24" fill="none" stroke="currentColor" stroke-width="2" stroke-linecap="round" stroke-linejoin="round">
      <path d="M4 15h16"/>
      <path d="M12 15V6M12 6l-6 3M12 6l6 3"/>
      <circle cx="6" cy="17.5" r="1.8"/>
      <circle cx="18" cy="17.5" r="1.8"/>
    </symbol>
  </defs>
</svg>
